<svg width="172" height="180" viewBox="0 0 172 180" fill="none" xmlns="http://www.w3.org/2000/svg">
<path d="M153.986 125.249C150.545 137.139 144.641 147.715 135.661 155.716C118.623 170.908 90.3939 176.895 46.4979 165.088C27.8931 182.518 23.5847 180.056 25.8508 176.279C28.7604 171.383 33.2367 158.738 33.2367 158.738C32.8171 158.57 29.9634 155.8 26.0746 150.82C16.2827 138.314 0 112.044 0 79.1428C0 33.1485 30.1593 9.28405 61.6614 2.26181C105.166 -7.44623 141.116 15.1313 151.272 50.1865C154.965 62.972 157.427 76.9885 157.847 90.8372C158.238 102.755 157.091 114.534 153.986 125.249Z" fill="#B0F8FE"/>
<path d="M156.952 118.087C160.393 120.968 158.686 124.046 153.986 125.277C152.419 125.696 150.489 125.892 148.335 125.808C147.971 125.78 147.635 125.78 147.3 125.752C142.46 134.369 135.214 133.194 134.15 134.453C133.759 134.901 133.339 136.551 132.919 138.51C132.136 142.259 131.437 147.183 131.437 147.183C133.703 148.106 135.27 151.939 135.633 155.744C118.595 170.935 90.3664 176.922 46.4704 165.116C27.8656 182.546 23.5571 180.084 25.8233 176.307C28.7329 171.411 33.2092 158.765 33.2092 158.765C32.7896 158.597 29.9359 155.828 26.0471 150.848C43.9524 112.911 41.6023 81.9681 41.6023 81.9681C23.2494 82.6396 23.4173 65.4896 34.9718 67.2522C30.1877 60.8175 35.4194 48.5355 47.9252 53.4595C47.9252 53.4595 42.8893 40.8419 54.7795 37.2048C64.7673 34.1553 67.3692 42.3526 74.8391 43.9753C92.3807 47.8361 84.5751 38.7156 86.4496 39.0513C98.3678 41.2615 95.3183 50.5219 86.3097 55.1661C86.1138 55.278 85.89 55.3619 85.6942 55.4739C97.4725 69.1267 111.517 92.4316 109.615 93.6346C107.6 94.9215 90.0586 89.9136 90.0586 89.9136L87.6806 139.517C87.6806 139.517 92.2408 149.001 95.626 159.045C98.0321 147.546 99.5428 144.217 103.18 142.902C103.935 142.622 104.607 141.811 105.194 140.58C106.201 138.51 107.041 135.348 107.824 131.991C108.803 127.878 109.754 123.486 110.929 120.548C115.686 108.882 123.044 88.3189 143.719 93.2988C146.041 91.1166 149.174 89.8017 152.615 89.8017C154.434 89.8017 156.196 90.1654 157.819 90.8369C162.967 92.9631 166.772 98.1109 166.996 104.126C167.331 110.924 162.995 116.604 156.952 118.087Z" fill="#FBFDFF"/>
<path d="M95.6539 160.024C95.5979 160.024 95.514 160.024 95.458 159.996C94.9265 159.884 94.5907 159.381 94.7027 158.849C97.0248 147.742 98.6194 143.518 102.872 141.979C105.614 141 108.216 128.69 109.475 122.759C109.67 121.892 109.838 121.052 110.006 120.325C111.937 111.484 117.224 100.125 126.205 94.7259C131.8 91.3687 138.179 90.6693 145.173 92.6556C145.705 92.7955 145.985 93.3551 145.845 93.8586C145.705 94.3902 145.145 94.67 144.642 94.5301C138.179 92.7116 132.304 93.3271 127.212 96.4045C118.763 101.468 113.755 112.296 111.909 120.745C111.741 121.472 111.573 122.311 111.377 123.179C109.139 133.726 106.985 142.567 103.515 143.826C100.354 144.973 98.9272 148.134 96.6051 159.241C96.5212 159.717 96.1295 160.024 95.6539 160.024Z" fill="#202A37"/>
<path d="M146.544 120.381C142.823 120.381 139.941 119.066 138.878 117.052C138.459 116.268 137.423 113.471 141.676 110.841C142.124 110.561 142.739 110.701 143.019 111.149C143.299 111.596 143.159 112.212 142.711 112.492C141.816 113.051 139.773 114.534 140.613 116.101C141.788 118.311 147.383 119.626 153.818 116.716C154.322 116.492 154.881 116.716 155.105 117.22C155.329 117.723 155.105 118.283 154.601 118.507C151.748 119.821 148.978 120.381 146.544 120.381Z" fill="#202A37"/>
<path d="M149.174 126.788C148.894 126.788 148.587 126.788 148.307 126.76C144.026 126.62 141.145 125.137 140.641 122.787C140.25 121.08 141.285 119.346 143.355 118.283C143.831 118.031 144.418 118.227 144.67 118.702C144.922 119.178 144.726 119.765 144.25 120.017C143.019 120.661 142.376 121.556 142.544 122.367C142.795 123.486 144.698 124.689 148.391 124.801C153.846 124.997 157.036 123.262 157.679 121.584C158.239 120.157 157.008 118.73 155.889 117.779C155.469 117.443 155.413 116.8 155.777 116.408C156.113 115.988 156.756 115.933 157.148 116.296C160.225 118.87 159.945 121.164 159.498 122.311C158.435 125.053 154.434 126.788 149.174 126.788Z" fill="#202A37"/>
<path d="M159.342 117.227C166.186 114.027 168.991 105.566 165.607 98.3307C162.224 91.0948 153.932 87.8236 147.088 91.0242C140.244 94.2248 137.439 102.685 140.823 109.921C144.207 117.157 152.498 120.428 159.342 117.227Z" fill="#06D188"/>
<path d="M68.9352 79.1425C68.2917 79.1985 67.7321 78.7229 67.6762 78.0794L67.4244 75.1138C67.3684 74.4704 67.844 73.9108 68.4875 73.8549C69.131 73.7989 69.6905 74.2745 69.7465 74.918L69.9983 77.8836C70.0542 78.527 69.5786 79.0866 68.9352 79.1425Z" fill="#202A37"/>
<path d="M81.9171 77.1285C81.2736 77.1845 80.7141 76.7088 80.6581 76.0654L80.4063 73.0998C80.3504 72.4563 80.826 71.8968 81.4695 71.8408C82.1129 71.7849 82.6725 72.2605 82.7284 72.904L82.9802 75.8695C83.0082 76.513 82.5326 77.0726 81.9171 77.1285Z" fill="#202A37"/>
<path d="M159.694 105.637C159.973 106.448 160.029 107.148 159.861 107.763C159.694 108.379 159.274 108.938 158.574 109.414L159.302 111.512C159.33 111.568 159.33 111.624 159.302 111.68C159.274 111.736 159.218 111.764 159.162 111.792L156.392 112.743C156.336 112.771 156.28 112.771 156.224 112.743C156.168 112.715 156.14 112.659 156.112 112.603L155.469 110.729C154.937 110.897 154.462 111.009 154.014 111.092C153.958 111.092 153.902 111.092 153.846 111.065C153.79 111.037 153.762 110.981 153.734 110.925L153.175 108.631C153.147 108.547 153.175 108.491 153.203 108.435C153.231 108.379 153.287 108.351 153.371 108.351C153.539 108.323 153.734 108.295 153.93 108.267C154.126 108.239 154.35 108.183 154.658 108.127C154.965 108.071 155.217 107.987 155.469 107.903C155.749 107.819 155.945 107.707 156.112 107.567C156.28 107.428 156.364 107.288 156.42 107.148C156.448 107.008 156.476 106.896 156.476 106.784C156.476 106.7 156.476 106.616 156.448 106.532C156.42 106.448 156.364 106.364 156.308 106.308C156.252 106.224 156.14 106.141 156.001 106.029C155.861 105.917 155.665 105.833 155.413 105.777C155.161 105.721 154.853 105.721 154.518 105.749C154.126 105.777 153.734 105.777 153.343 105.693C152.951 105.609 152.559 105.469 152.168 105.273C151.776 105.077 151.44 104.77 151.105 104.406C150.769 104.014 150.517 103.567 150.349 103.063C150.097 102.336 150.069 101.664 150.265 101.021C150.461 100.405 150.881 99.8457 151.496 99.3421L150.741 97.1879C150.713 97.1319 150.713 97.076 150.741 97.02C150.769 96.9641 150.797 96.9081 150.881 96.9081L153.65 95.9569C153.706 95.9289 153.762 95.9289 153.846 95.9569C153.902 95.9849 153.958 96.0408 153.958 96.0968L154.602 97.9713C155.105 97.8314 155.609 97.6915 156.112 97.5796C156.168 97.5796 156.224 97.5796 156.28 97.6075C156.336 97.6355 156.364 97.6915 156.392 97.7474L156.952 100.042C156.952 100.098 156.952 100.153 156.924 100.237C156.896 100.293 156.84 100.321 156.756 100.349C155.917 100.461 155.189 100.601 154.574 100.825C154.322 100.909 154.098 101.021 153.93 101.161C153.762 101.301 153.678 101.44 153.622 101.58C153.595 101.72 153.567 101.832 153.567 101.944C153.567 102.028 153.567 102.112 153.595 102.196C153.622 102.252 153.65 102.336 153.734 102.42C153.79 102.504 153.902 102.587 154.042 102.699C154.182 102.811 154.378 102.895 154.63 102.951C154.881 103.007 155.189 103.007 155.525 102.979C155.917 102.951 156.308 102.979 156.7 103.063C157.092 103.147 157.483 103.287 157.875 103.483C158.267 103.679 158.602 103.986 158.938 104.35C159.274 104.686 159.526 105.133 159.694 105.637Z" fill="#202A37"/>
<path d="M156.336 113.191C156.252 113.191 156.14 113.163 156.056 113.135C155.888 113.051 155.776 112.939 155.721 112.771L155.217 111.288C154.825 111.4 154.462 111.484 154.126 111.568C153.958 111.596 153.79 111.568 153.65 111.484C153.51 111.4 153.398 111.288 153.37 111.12V111.092L152.811 108.798C152.755 108.602 152.811 108.407 152.923 108.267C153.035 108.127 153.203 108.015 153.398 107.987C153.566 107.959 153.762 107.931 153.93 107.903C154.126 107.875 154.35 107.819 154.629 107.763C154.909 107.707 155.161 107.623 155.385 107.539C155.609 107.455 155.776 107.371 155.888 107.287C156.028 107.176 156.056 107.092 156.056 107.092C156.084 106.98 156.084 106.896 156.084 106.84C156.084 106.756 156.084 106.728 156.084 106.728C156.084 106.7 156.056 106.672 156.028 106.616C156 106.588 155.944 106.532 155.804 106.42C155.749 106.364 155.637 106.308 155.385 106.252C155.161 106.196 154.909 106.196 154.601 106.224C154.182 106.28 153.734 106.252 153.287 106.14C152.867 106.056 152.419 105.889 152 105.665C151.58 105.441 151.16 105.105 150.797 104.686C150.433 104.266 150.153 103.762 149.957 103.203C149.677 102.391 149.65 101.608 149.873 100.909C150.069 100.293 150.461 99.7336 150.992 99.2301L150.349 97.3556C150.293 97.1877 150.293 97.0199 150.377 96.88C150.461 96.7121 150.573 96.6002 150.769 96.5163L153.538 95.565C153.706 95.5091 153.874 95.5091 154.042 95.593C154.21 95.677 154.322 95.7889 154.378 95.9567L154.881 97.4395C155.273 97.3276 155.637 97.2437 156.028 97.1597C156.196 97.1318 156.336 97.1597 156.504 97.2437C156.672 97.3276 156.784 97.4955 156.812 97.6633L157.371 99.9574C157.399 100.153 157.371 100.321 157.287 100.461C157.175 100.629 157.007 100.741 156.812 100.741C156.028 100.825 155.329 100.993 154.741 101.188C154.518 101.244 154.35 101.328 154.238 101.44C154.098 101.552 154.07 101.608 154.07 101.664C154.042 101.804 154.014 101.888 154.014 101.916C154.014 101.972 154.014 102 154.042 102.028C154.042 102.028 154.07 102.084 154.098 102.14C154.126 102.168 154.182 102.224 154.322 102.335C154.378 102.391 154.518 102.447 154.741 102.503C154.965 102.559 155.217 102.559 155.525 102.531C155.944 102.503 156.392 102.531 156.812 102.615C157.259 102.699 157.679 102.867 158.099 103.091C158.518 103.315 158.938 103.65 159.274 104.07C159.637 104.49 159.889 104.993 160.085 105.553C160.393 106.42 160.449 107.231 160.253 107.931C160.085 108.546 159.665 109.134 159.078 109.61L159.693 111.4C159.749 111.568 159.749 111.736 159.665 111.904C159.581 112.072 159.469 112.183 159.302 112.239L156.532 113.191C156.476 113.191 156.392 113.191 156.336 113.191ZM155.469 110.337C155.637 110.337 155.804 110.449 155.86 110.617L156.448 112.295L158.854 111.456L158.183 109.554C158.127 109.386 158.183 109.19 158.322 109.078C158.91 108.658 159.302 108.183 159.441 107.651C159.581 107.12 159.553 106.476 159.302 105.777C159.134 105.301 158.91 104.909 158.63 104.546C158.35 104.21 158.043 103.958 157.707 103.762C157.371 103.566 157.007 103.455 156.644 103.371C156.28 103.287 155.916 103.287 155.581 103.315C155.217 103.343 154.853 103.343 154.573 103.287C154.238 103.231 153.986 103.119 153.818 102.979C153.65 102.839 153.51 102.727 153.426 102.615C153.342 102.503 153.287 102.391 153.231 102.28C153.175 102.168 153.175 102.028 153.175 101.888C153.175 101.748 153.203 101.608 153.259 101.412C153.315 101.188 153.482 100.993 153.706 100.797C153.902 100.629 154.182 100.489 154.49 100.377C155.077 100.181 155.776 100.041 156.532 99.9295L156.056 97.9991C155.637 98.111 155.189 98.2229 154.769 98.3348C154.546 98.3907 154.322 98.2788 154.266 98.083L153.678 96.3764L151.272 97.2157L151.972 99.2021C152.028 99.3699 151.972 99.5658 151.832 99.6777C151.272 100.097 150.908 100.601 150.741 101.16C150.573 101.692 150.601 102.28 150.825 102.923C150.992 103.399 151.216 103.79 151.496 104.154C151.776 104.49 152.112 104.769 152.447 104.937C152.783 105.105 153.147 105.245 153.51 105.329C153.874 105.413 154.21 105.413 154.546 105.385C154.937 105.357 155.273 105.357 155.581 105.413C155.916 105.469 156.168 105.581 156.364 105.749C156.532 105.889 156.644 106 156.728 106.112C156.812 106.224 156.896 106.336 156.924 106.476C156.952 106.588 156.979 106.728 156.979 106.868C156.979 107.008 156.952 107.148 156.896 107.343C156.84 107.567 156.7 107.763 156.476 107.959C156.28 108.127 156 108.267 155.693 108.379C155.441 108.462 155.161 108.546 154.853 108.602C154.545 108.658 154.294 108.714 154.098 108.742C153.958 108.77 153.846 108.77 153.734 108.798L154.21 110.729C154.573 110.645 154.993 110.533 155.441 110.393C155.385 110.337 155.441 110.337 155.469 110.337Z" fill="#202A37"/>
<path d="M40.7066 77.1005C40.5107 77.1005 40.3149 77.0445 40.147 76.9326C40.0911 76.9047 35.5588 73.8552 32.3694 73.7153C31.8378 73.6873 31.4182 73.2396 31.4461 72.7081C31.4741 72.1765 31.9218 71.7569 32.4533 71.7848C36.2022 71.9527 41.0423 75.198 41.2381 75.3379C41.6858 75.6457 41.7977 76.2612 41.4899 76.7088C41.322 76.9606 41.0143 77.1005 40.7066 77.1005Z" fill="#202A37"/>
<path d="M86.4774 39.0517C98.3956 41.2619 95.3461 50.5223 86.3375 55.1665C77.161 59.8667 61.8296 57.4047 61.8296 57.4047C61.8296 57.4047 61.6058 63.8954 54.8353 68.8753C48.0649 73.8552 37.2098 70.1902 35.0276 67.2526C30.2435 60.8179 35.4752 48.536 47.9809 53.4319C47.9809 53.4319 42.9451 40.8143 54.8353 37.1773C64.8231 34.1278 67.425 42.325 74.8949 43.9477C92.4085 47.8085 84.6029 38.688 86.4774 39.0517Z" fill="#202A37"/>
<path d="M46.6103 72.2883C41.0988 72.2883 35.7832 69.9103 34.2165 67.812C31.5307 64.175 31.6146 58.8594 34.4683 55.1384C37.1261 51.6693 41.5185 50.5222 46.4704 51.8931C45.9109 49.6269 45.3793 45.6822 47.058 42.1571C48.4288 39.3314 50.9188 37.345 54.5278 36.2259C61.2144 34.1836 64.8793 36.8694 68.4045 39.4433C70.4748 40.9541 72.4611 42.4089 75.063 42.9684C82.4769 44.5911 84.6591 43.7238 85.3026 43.0523C85.8621 42.4648 85.6663 41.4856 85.3865 40.3665C85.1907 39.5832 84.9948 38.9117 85.4984 38.3522C85.6383 38.2123 86.002 37.8766 86.6455 38.0165C93.4439 39.2754 94.9267 42.6327 95.2065 44.5351C95.794 48.4799 92.3808 53.0681 86.7574 55.9498C78.672 60.0904 66.2782 58.8873 62.6412 58.4117C62.2775 60.566 60.8507 65.5179 55.3672 69.5746C52.7933 71.561 49.6598 72.2883 46.6103 72.2883ZM42.5257 53.2919C39.8399 53.2919 37.5737 54.3271 36.035 56.3414C33.7409 59.335 33.6569 63.7553 35.8112 66.665C37.7976 69.3228 48.1211 72.5961 54.2481 68.0918C60.5709 63.4476 60.8507 57.4325 60.8507 57.3766C60.8507 57.0968 60.9905 56.845 61.2143 56.6492C61.4382 56.4813 61.7179 56.3974 61.9977 56.4254C62.1376 56.4533 77.1053 58.8034 85.9181 54.2991C90.7301 51.8371 93.7517 47.9763 93.304 44.8988C92.9963 42.7446 90.898 41.1219 87.3729 40.2546C87.6806 41.4297 87.9884 43.1642 86.7294 44.4792C85.0508 46.2417 81.218 46.3816 74.6713 44.9548C71.6498 44.2833 69.4396 42.6606 67.2854 41.0939C63.8442 38.576 60.8786 36.3938 55.1433 38.1563C52.0938 39.0796 49.9676 40.7302 48.8765 43.0523C46.7502 47.5007 48.9044 53.0401 48.9324 53.0961C49.0723 53.4598 48.9884 53.8794 48.7086 54.1592C48.4288 54.439 48.0092 54.5229 47.6455 54.383C45.799 53.6276 44.0924 53.2919 42.5257 53.2919Z" fill="#202A37"/>
<path d="M98.4515 170.012C98.0039 170.012 97.5842 169.705 97.5003 169.229C94.9823 156.947 86.9529 140.105 86.869 139.937C86.7851 139.797 86.7571 139.629 86.7851 139.461L89.1351 89.858C89.1631 89.5503 89.303 89.2705 89.5548 89.1026C89.8066 88.9348 90.1143 88.8788 90.3941 88.9628C97.8919 91.089 106.677 93.0754 108.831 92.8516C108.551 91.3408 106.173 86.221 100.326 77.0725C94.4787 67.924 87.9321 59.1672 82.8123 53.6557C82.4486 53.264 82.4766 52.6485 82.8683 52.2848C83.26 51.9211 83.8754 51.9491 84.2391 52.3408C89.4429 57.9642 96.1014 66.8329 102.005 76.0933C104.159 79.4506 111.153 90.6693 110.817 93.4671C110.733 94.0546 110.398 94.3623 110.202 94.5022C109.67 94.8379 108.579 95.5373 98.9271 93.2712C95.7657 92.5158 92.6882 91.7045 91.0655 91.2569L88.7714 139.405C89.7506 141.476 97.0526 157.199 99.4587 168.921C99.5706 169.453 99.2348 169.956 98.7033 170.068C98.5634 170.012 98.5075 170.012 98.4515 170.012Z" fill="#202A37"/>
<path d="M69.1033 134.425C56.2059 134.425 43.7281 131.432 38.4404 126.368C38.0487 126.004 38.0487 125.361 38.4124 124.997C38.7761 124.605 39.4196 124.605 39.7833 124.969C43.0287 128.074 49.6592 130.536 57.9964 131.739C66.5574 132.97 76.0416 132.719 84.015 131.04C84.5466 130.928 85.0502 131.264 85.1621 131.795C85.274 132.327 84.9383 132.83 84.4067 132.942C79.5387 133.95 74.279 134.425 69.1033 134.425Z" fill="#202A37"/>
<path d="M52.5416 149.169C48.9605 149.169 45.2396 144.525 39.1685 136.58C38.8328 136.16 38.9168 135.544 39.3644 135.209C39.784 134.873 40.3995 134.957 40.7353 135.404C46.3307 142.762 50.2195 147.547 52.8493 147.211C54.9196 146.931 61.774 141.028 65.0753 138.174C66.5301 136.915 67.5932 136.02 68.1528 135.6C71.4541 133.222 74.4756 135.908 77.2453 139.153C78.3084 140.412 81.5818 144.217 83.792 143.742C85.2747 143.406 86.2539 141.112 86.7855 139.237C86.9254 138.706 87.4849 138.426 87.9885 138.566C88.5201 138.706 88.7999 139.265 88.66 139.769C87.6528 143.294 86.198 145.196 84.2116 145.644C81.2181 146.288 78.1126 143.21 75.7346 140.44C71.8737 135.936 70.4189 136.356 69.2719 137.195C68.7962 137.531 67.6492 138.51 66.3343 139.657C60.7388 144.469 55.5351 148.833 53.0731 149.141C52.9053 149.169 52.7374 149.169 52.5416 149.169Z" fill="#202A37"/>
<path d="M70.8105 149.197C70.6986 149.197 70.5587 149.197 70.4468 149.169C68.1527 148.749 65.8306 145.784 63.5924 140.328C63.3966 139.825 63.6204 139.265 64.124 139.041C64.6276 138.846 65.1871 139.069 65.4109 139.573C68.1806 146.26 70.2509 147.127 70.8105 147.239C71.8456 147.435 75.5106 143.378 76.8815 140.832C77.1333 140.356 77.7208 140.161 78.1964 140.44C78.672 140.692 78.8679 141.28 78.5881 141.755C78.0845 142.706 73.888 149.197 70.8105 149.197Z" fill="#202A37"/>
<path d="M77.7482 170.712C77.2167 170.712 76.797 170.292 76.769 169.788C76.0416 154.261 72.6284 148.442 72.2927 147.882C72.2647 147.854 72.2367 147.826 72.2087 147.798C71.873 147.379 71.901 146.763 72.3207 146.427C72.6004 146.176 73.0201 146.12 73.3558 146.288C74.2791 146.679 75.538 150.26 76.0976 152.079C77.0768 155.352 78.3357 161.059 78.7274 169.732C78.7554 170.264 78.3357 170.74 77.8042 170.768C77.7762 170.712 77.7482 170.712 77.7482 170.712Z" fill="#202A37"/>
<path d="M83.848 87.8432C83.848 89.6338 80.127 96.656 75.3989 100.517C72.881 102.559 70.0833 103.706 67.3975 102.671C64.1801 101.44 62.2217 99.1739 61.1306 96.8518C59.5639 93.5785 59.7598 90.2492 60.627 89.7736C63.2849 88.2908 83.848 86.2206 83.848 87.8432Z" fill="#202A37"/>
<path d="M69.4678 104.014C68.6285 104.014 67.8451 103.874 67.0618 103.566C63.2009 102.112 61.2425 99.314 60.2353 97.2716C58.5847 93.8025 58.5288 89.8017 60.1514 88.9065C61.7181 88.0392 67.6493 87.1999 72.2655 86.7522C76.0704 86.3885 82.7009 85.885 84.1837 86.7802C84.6034 87.032 84.8272 87.4237 84.8272 87.8434C84.8272 90.1934 80.7146 97.4675 76.0144 101.272C73.7763 103.091 71.5661 104.014 69.4678 104.014ZM61.1586 90.5851C60.8229 91.1167 60.683 93.6906 61.9979 96.4323C62.8372 98.1669 64.4879 100.517 67.7332 101.748C69.8035 102.531 72.1536 101.86 74.7834 99.7336C79.0639 96.2645 82.2253 90.3613 82.7849 88.319C79.5955 87.7594 63.5926 89.3821 61.1586 90.5851Z" fill="#202A37"/>
<path d="M75.427 100.517C72.9091 102.56 70.1114 103.707 67.4256 102.671C64.2082 101.44 62.2498 99.1743 61.1587 96.8522C66.3904 95.2295 72.993 95.2575 75.427 100.517Z" fill="#FBFDFF"/>
<path d="M69.4678 104.014C68.6285 104.014 67.8451 103.874 67.0617 103.567C63.2009 102.112 61.2425 99.3141 60.2353 97.2718C60.1234 97.02 60.0955 96.7123 60.2353 96.4605C60.3472 96.2087 60.5711 96.0128 60.8508 95.9289C66.5861 94.1664 73.6363 94.3342 76.3221 100.097C76.518 100.517 76.4061 100.993 76.0424 101.273C73.7762 103.091 71.566 104.014 69.4678 104.014ZM62.5854 97.4676C63.5366 99.0064 65.1313 100.741 67.7612 101.748C69.6636 102.476 71.8178 101.972 74.1679 100.237C71.9577 96.6004 67.0058 96.3765 62.5854 97.4676Z" fill="#202A37"/>
<path d="M135.745 158.374C135.213 158.374 134.766 157.926 134.766 157.395C134.766 153.142 133.087 148.862 131.101 148.05C130.681 147.882 130.429 147.463 130.485 147.015C130.961 143.49 132.22 135.181 133.395 133.782C133.898 133.194 134.766 132.999 135.969 132.719C138.627 132.131 143.103 131.124 146.432 125.221C146.684 124.745 147.299 124.577 147.775 124.857C148.251 125.109 148.419 125.725 148.139 126.2C144.39 132.859 139.186 134.034 136.388 134.649C135.801 134.789 135.074 134.957 134.85 135.069C134.29 135.908 133.199 141.532 132.472 146.595C135.213 148.33 136.668 153.282 136.668 157.367C136.724 157.926 136.277 158.374 135.745 158.374Z" fill="#202A37"/>
<path d="M132.64 139.461C129.534 139.461 115.462 137.699 107.824 133.11C107.348 132.831 107.209 132.243 107.488 131.768C107.768 131.292 108.356 131.152 108.831 131.432C116.693 136.16 131.577 137.643 132.864 137.503C133.395 137.447 133.871 137.839 133.927 138.37C133.983 138.902 133.591 139.377 133.059 139.433C132.92 139.461 132.808 139.461 132.64 139.461Z" fill="#202A37"/>
<path d="M131.465 148.134C131.437 148.134 131.409 148.134 131.409 148.134C114.707 146.987 106.985 142.846 104.998 141.615C104.551 141.336 104.411 140.72 104.691 140.272C104.97 139.825 105.586 139.685 106.034 139.965C107.377 140.804 114.846 145.028 131.521 146.176C132.052 146.204 132.472 146.679 132.416 147.211C132.416 147.742 131.968 148.134 131.465 148.134Z" fill="#202A37"/>
<path d="M133.367 97.8311C143.635 99.3698 149.454 102.056 149.006 104.881C148.559 107.707 143.271 109.022 134.206 107.483C134.206 107.483 137.116 124.213 126.317 124.717" fill="#FBFDFF"/>
<path d="M126.317 125.724C125.785 125.724 125.366 125.305 125.338 124.801C125.31 124.27 125.729 123.794 126.261 123.766C128.387 123.654 130.01 122.871 131.213 121.388C134.794 116.912 133.255 107.763 133.255 107.679C133.199 107.371 133.311 107.036 133.535 106.812C133.759 106.588 134.067 106.476 134.402 106.532C140.445 107.567 145.257 107.315 147.244 105.917C147.719 105.581 147.999 105.189 148.055 104.742C148.111 104.434 147.999 104.126 147.747 103.79C146.321 101.832 140.893 99.9575 133.227 98.8104C132.696 98.7265 132.332 98.2229 132.416 97.6914C132.5 97.1598 133.003 96.7961 133.535 96.88C138.403 97.6074 146.908 99.314 149.342 102.643C149.902 103.399 150.125 104.238 149.986 105.077C149.818 106.029 149.286 106.868 148.363 107.511C146.041 109.162 141.481 109.582 135.382 108.686C135.689 111.596 136.053 118.534 132.78 122.619C131.241 124.549 129.087 125.612 126.401 125.752C126.345 125.724 126.317 125.724 126.317 125.724Z" fill="#202A37"/>
<path d="M26.6063 180C25.9908 180 25.4592 179.86 25.0396 179.524C24.0884 178.769 24.0604 177.37 25.0116 175.803C27.4736 171.663 31.1386 161.759 32.0898 159.101C30.635 157.842 27.8932 154.765 25.3193 151.463C24.9836 151.044 25.0675 150.428 25.4872 150.093C25.9069 149.757 26.5224 149.841 26.8581 150.26C30.7189 155.184 33.2648 157.618 33.6845 157.898C34.1321 158.122 34.328 158.626 34.1601 159.101C33.9643 159.633 29.5998 171.887 26.6902 176.811C26.2706 177.51 26.2706 177.902 26.2985 178.014C26.5503 178.098 30.4112 178.881 45.8545 164.417C46.1063 164.193 46.442 164.109 46.7777 164.193C52.4571 165.704 57.9965 166.963 63.2562 167.942C63.7878 168.026 64.1515 168.557 64.0396 169.089C63.9277 169.621 63.4241 169.984 62.8925 169.872C57.7447 168.921 52.3172 167.718 46.7777 166.235C40.7907 171.775 31.1945 180 26.6063 180ZM33.6006 157.842C33.6285 157.842 33.6285 157.87 33.6565 157.87C33.6285 157.87 33.6285 157.842 33.6006 157.842Z" fill="#B0F8FE"/>
<path d="M25.8507 152.302C25.7108 152.302 25.5709 152.274 25.431 152.219C24.9554 151.995 24.7316 151.407 24.9554 150.904C41.0982 117.023 40.9024 88.3749 40.6785 82.9473C40.6785 82.9473 40.6506 82.9473 40.6226 82.9473C34.02 82.9473 28.9002 80.5413 26.8299 76.4567C25.487 73.7988 25.6828 70.8613 27.3615 68.763C29.2359 66.4129 32.5092 65.6016 36.3421 66.5248C36.8737 66.6647 37.1814 67.1963 37.0695 67.6999C36.9296 68.2314 36.398 68.5392 35.8945 68.4272C32.845 67.6719 30.2991 68.2314 28.9282 69.966C27.7531 71.4488 27.6133 73.603 28.6204 75.5614C30.4389 79.1704 35.307 81.1848 41.6018 80.961C42.1334 80.933 42.581 81.3526 42.609 81.8562C42.6369 82.192 43.1965 89.9136 41.5179 102.447C39.9791 114.002 36.1742 131.907 26.718 151.743C26.5501 152.107 26.2144 152.302 25.8507 152.302Z" fill="#202A37"/>
<path d="M63.0606 169.844C63.0046 169.844 62.9487 169.844 62.8927 169.844C62.3611 169.76 61.9974 169.257 62.0814 168.725C62.1933 168.026 64.8511 151.771 67.6208 146.427C67.8726 145.952 68.4601 145.756 68.9358 146.008C69.4114 146.26 69.6072 146.847 69.3554 147.323C66.7256 152.415 64.0398 168.893 64.0118 169.033C63.9558 169.509 63.5362 169.844 63.0606 169.844Z" fill="#202A37"/>
</svg>
