<svg width="100" height="100" viewBox="0 0 100 100" fill="none" xmlns="http://www.w3.org/2000/svg">
<rect x="84" y="59" width="68" height="32" transform="rotate(-180 84 59)" stroke="black" stroke-width="4"/>
<circle cx="50" cy="43" r="10" transform="rotate(-180 50 43)" fill="black"/>
<circle cx="67" cy="43" r="3" transform="rotate(-180 67 43)" fill="black"/>
<circle cx="33" cy="43" r="3" transform="rotate(-180 33 43)" fill="black"/>
<circle cx="18" cy="57" r="3" transform="rotate(-180 18 57)" fill="black"/>
<circle cx="18" cy="29" r="3" transform="rotate(-180 18 29)" fill="black"/>
<circle cx="82" cy="29" r="3" transform="rotate(-180 82 29)" fill="black"/>
<circle cx="82" cy="57" r="3" transform="rotate(-180 82 57)" fill="black"/>
<rect x="53" y="73" width="6" height="6" transform="rotate(-180 53 73)" fill="black"/>
<path d="M50 82L39.6077 73L60.3923 73L50 82Z" fill="black"/>
</svg>
