<svg width="100" height="100" viewBox="0 0 100 100" fill="none" xmlns="http://www.w3.org/2000/svg">
<rect x="26" y="26" width="18" height="18" stroke="black" stroke-width="4"/>
<rect x="26" y="56" width="18" height="18" stroke="black" stroke-width="4"/>
<rect x="56" y="26" width="18" height="18" stroke="black" stroke-width="4"/>
<rect x="54" y="54" width="5.5" height="5.5" fill="white"/>
<rect x="54" y="65" width="5.5" height="5.5" fill="white"/>
<rect x="59.5" y="59.5" width="5.5" height="5.5" fill="white"/>
<rect x="59.5" y="70.5" width="5.5" height="5.5" fill="white"/>
<rect x="59.5" y="54" width="5.5" height="5.5" fill="black"/>
<rect x="59.5" y="65" width="5.5" height="5.5" fill="black"/>
<rect x="54" y="59.5" width="5.5" height="5.5" fill="black"/>
<rect x="54" y="70.5" width="5.5" height="5.5" fill="black"/>
<rect x="65" y="54" width="5.5" height="5.5" fill="white"/>
<rect x="65" y="65" width="5.5" height="5.5" fill="white"/>
<rect x="70.5" y="59.5" width="5.5" height="5.5" fill="white"/>
<rect x="70.5" y="70.5" width="5.5" height="5.5" fill="white"/>
<rect x="70.5" y="54" width="5.5" height="5.5" fill="black"/>
<rect x="70.5" y="65" width="5.5" height="5.5" fill="black"/>
<rect x="65" y="59.5" width="5.5" height="5.5" fill="black"/>
<rect x="65" y="70.5" width="5.5" height="5.5" fill="black"/>
<rect x="14" y="14" width="16" height="6" fill="black"/>
<rect x="20" y="14" width="16" height="6" transform="rotate(90 20 14)" fill="black"/>
<rect x="86" y="86" width="16" height="6" transform="rotate(-180 86 86)" fill="black"/>
<rect x="80" y="86" width="16" height="6" transform="rotate(-90 80 86)" fill="black"/>
<rect x="86" y="14" width="16" height="6" transform="rotate(90 86 14)" fill="black"/>
<rect x="86" y="20" width="16" height="6" transform="rotate(-180 86 20)" fill="black"/>
<rect x="14" y="86" width="16" height="6" transform="rotate(-90 14 86)" fill="black"/>
<rect x="14" y="80" width="16" height="6" fill="black"/>
</svg>
